<svg width="50" height="50" viewBox="0 0 50 50" fill="none" xmlns="http://www.w3.org/2000/svg">
<g id="arroba 1" clip-path="url(#clip0_18_52)">
<path id="Vector" d="M48.9811 21.5625C48.1078 15.1971 44.7416 9.43936 39.623 5.55589C34.5044 1.67242 28.0528 -0.0186431 21.6874 0.854706C15.322 1.72806 9.56424 5.09428 5.68077 10.2129C1.7973 15.3314 0.106235 21.7831 0.979584 28.1485C1.69911 33.4169 4.12019 38.3061 7.87437 42.0718C11.6285 45.8376 16.5102 48.2737 21.7765 49.0094C22.854 49.1505 23.9397 49.2215 25.0265 49.2219C29.4173 49.2291 33.726 48.0309 37.4827 45.7578C37.7464 45.599 37.9762 45.3898 38.159 45.1422C38.3418 44.8946 38.4741 44.6133 38.5482 44.3146C38.6224 44.0159 38.6369 43.7054 38.5911 43.4011C38.5453 43.0967 38.44 42.8043 38.2811 42.5406C38.1223 42.277 37.9131 42.0472 37.6655 41.8643C37.4179 41.6815 37.1367 41.5493 36.8379 41.4751C36.2346 41.3254 35.5965 41.4215 35.064 41.7422C32.39 43.3472 29.3705 44.2885 26.2582 44.4875C23.1458 44.6864 20.0311 44.1371 17.1746 42.8856C14.318 41.6341 11.8027 39.7167 9.83899 37.2938C7.8753 34.871 6.52036 32.0131 5.88751 28.9593C5.25465 25.9055 5.36228 22.7446 6.2014 19.7409C7.04052 16.7372 8.58672 13.9781 10.7107 11.6945C12.8346 9.41083 15.4745 7.66898 18.4096 6.61467C21.3447 5.56036 24.4895 5.22422 27.5811 5.63439C30.4527 6.0162 33.2034 7.032 35.634 8.6082C38.0645 10.1844 40.114 12.2815 41.6339 14.7476C43.1538 17.2137 44.1061 19.987 44.4218 22.8667C44.7376 25.7463 44.4088 28.6601 43.4593 31.3969C43.2129 32.055 42.7678 32.6201 42.1857 33.0138C41.6036 33.4074 40.9134 33.6101 40.2108 33.5938C39.285 33.5925 38.3975 33.2242 37.7429 32.5696C37.0882 31.9149 36.7199 31.0274 36.7186 30.1016V15.625C36.7186 15.0034 36.4717 14.4073 36.0322 13.9677C35.5926 13.5282 34.9965 13.2813 34.3749 13.2813C33.7533 13.2813 33.1572 13.5282 32.7176 13.9677C32.2781 14.4073 32.0311 15.0034 32.0311 15.625V15.6469C30.2544 14.3059 28.1324 13.4986 25.9135 13.3197C23.6947 13.1408 21.4707 13.5975 19.502 14.6365C17.5333 15.6754 15.9012 17.2536 14.7968 19.1864C13.6923 21.1192 13.1612 23.3265 13.2656 25.5501C13.37 27.7737 14.1056 29.9216 15.3863 31.7424C16.6669 33.5632 18.4397 34.9815 20.4971 35.8315C22.5545 36.6814 24.8115 36.9278 27.0038 36.5417C29.1961 36.1557 31.2331 35.1532 32.8765 33.6516C33.5404 35.0345 34.5806 36.2023 35.8778 37.0212C37.1751 37.84 38.6768 38.2768 40.2108 38.2813C41.8878 38.2974 43.5282 37.791 44.9041 36.8322C46.2801 35.8735 47.3233 34.51 47.889 32.9313C49.1521 29.2825 49.5265 25.385 48.9811 21.5625ZM24.9999 32.0313C23.6092 32.0313 22.2498 31.6189 21.0935 30.8463C19.9373 30.0737 19.036 28.9756 18.5039 27.6908C17.9717 26.406 17.8324 24.9922 18.1037 23.6283C18.3751 22.2644 19.0447 21.0115 20.0281 20.0282C21.0114 19.0448 22.2642 18.3752 23.6282 18.1039C24.9921 17.8326 26.4058 17.9718 27.6906 18.504C28.9754 19.0362 30.0736 19.9374 30.8462 21.0937C31.6188 22.2499 32.0311 23.6094 32.0311 25C32.0291 26.8642 31.2876 28.6514 29.9695 29.9696C28.6513 31.2877 26.8641 32.0292 24.9999 32.0313Z" fill="black"/>
</g>
<defs>
<clipPath id="clip0_18_52">
<rect width="50" height="50" fill="white"/>
</clipPath>
</defs>
</svg>
