<svg width="20" height="19" viewBox="0 0 20 19" fill="none" xmlns="http://www.w3.org/2000/svg">
<g id="cart">
<path id="Vector" d="M19.8448 3.58851C19.7306 3.4245 19.5467 3.32312 19.347 3.31458L6.96562 2.78005C6.61038 2.76448 6.31351 3.03917 6.29833 3.39331C6.28323 3.74732 6.55704 4.04644 6.91059 4.06165L18.4537 4.56003L16.1841 11.6525H6.08401L4.25928 1.70142C4.21917 1.48332 4.06966 1.30137 3.86348 1.22035L0.874875 0.0444203C0.545493 -0.0847378 0.173811 0.0773025 0.0444524 0.406797C-0.0846827 0.73647 0.0770601 1.10896 0.406263 1.23852L3.06361 2.28409L4.92054 12.4098C4.97651 12.7142 5.24139 12.9353 5.55054 12.9353H5.85857L5.15518 14.8921C5.09631 15.0561 5.12057 15.2381 5.22076 15.3805C5.32081 15.5229 5.48354 15.6077 5.65725 15.6077H6.15061C5.8449 15.9484 5.65725 16.3971 5.65725 16.8905C5.65725 17.9516 6.5193 18.8148 7.57851 18.8148C8.63772 18.8148 9.49977 17.9516 9.49977 16.8905C9.49977 16.3972 9.31212 15.9484 9.00646 15.6077H13.1953C12.8894 15.9484 12.7018 16.3971 12.7018 16.8905C12.7018 17.9516 13.5637 18.8148 14.6231 18.8148C15.6826 18.8148 16.5444 17.9516 16.5444 16.8905C16.5444 16.3972 16.3568 15.9484 16.0511 15.6077H16.6511C16.9459 15.6077 17.1848 15.3684 17.1848 15.0732C17.1848 14.7779 16.9459 14.5387 16.6511 14.5387H6.41661L6.99291 12.9351H16.6511C16.9296 12.9351 17.176 12.7549 17.2608 12.4895L19.9293 4.15099C19.9905 3.96068 19.9591 3.7526 19.8448 3.58851ZM7.57856 17.746C7.10762 17.746 6.72464 17.3624 6.72464 16.8908C6.72464 16.4191 7.10762 16.0355 7.57856 16.0355C8.04949 16.0355 8.43243 16.4191 8.43243 16.8908C8.43243 17.3624 8.04949 17.746 7.57856 17.746ZM14.6231 17.746C14.1522 17.746 13.7692 17.3624 13.7692 16.8908C13.7692 16.4191 14.1522 16.0355 14.6231 16.0355C15.094 16.0355 15.477 16.4191 15.477 16.8908C15.477 17.3624 15.094 17.746 14.6231 17.746Z" fill="white"/>
</g>
</svg>
