<svg width="47" height="48" viewBox="0 0 47 48" fill="none" xmlns="http://www.w3.org/2000/svg">
<g id="Group">
<path id="Vector" d="M8.39384 24.432C8.39384 20.533 9.88473 16.8667 12.593 14.1088C15.3001 11.3521 18.9004 9.83278 22.7304 9.83278H37.0142L20.6056 0.187592C20.3902 0.0611673 20.1254 0.0611673 19.9101 0.187592L0.348278 11.6889C0.132939 11.8153 0 12.0491 0 12.302V35.3045C0 35.5574 0.132939 35.7912 0.348278 35.9176L8.39384 40.6479V24.432Z" fill="#C4EF17"/>
<path id="Vector_2" d="M22.7288 15.4968C17.8903 15.4968 13.9548 19.5055 13.9548 24.4316V25.1868H28.9704V30.8501H13.9548V43.9166L19.9096 47.4174C20.125 47.5438 20.3897 47.5438 20.6051 47.4174L40.1669 35.9161C40.3822 35.7897 40.5152 35.5558 40.5152 35.303V17.5789L46.3887 15.4968H22.7288Z" fill="#CACACA"/>
</g>
</svg>
